<?xml version="1.0" encoding="UTF-8"?>
<svg version="1.1" xmlns="http://www.w3.org/2000/svg" width="960" height="960">
<path d="M0 0 C2.08489887 0.00952558 4.16977241 0.01433612 6.25468826 0.01854706 C28.53804994 0.07917986 50.50184433 0.98883878 72.5422554 4.44683075 C73.24880264 4.55573639 73.95534988 4.66464203 74.68330765 4.77684784 C150.86574624 16.5823017 223.2002842 45.98514714 285.5422554 91.44683075 C286.57310257 92.19730682 286.57310257 92.19730682 287.62477493 92.96294403 C299.6535937 101.7576926 311.01891193 111.13828769 322.03053665 121.18120575 C323.39094319 122.40832207 324.75748747 123.62934624 326.15480423 124.81426239 C332.36890949 130.11354718 338.109419 135.86241295 343.86964798 141.64385223 C345.6012024 143.38076675 347.33803899 145.11226964 349.07545853 146.84331512 C354.77709227 152.54117042 360.35185166 158.27223811 365.5422554 164.44683075 C366.45438845 165.50336228 367.36712202 166.55937575 368.28053665 167.6147995 C424.71901276 233.81653248 462.19088133 314.66985159 476.7922554 400.38433075 C476.91127213 401.06823883 477.03028885 401.75214691 477.15291214 402.45677948 C481.46022512 427.48290853 483.11070034 452.53638529 482.98908615 477.90457535 C482.97956057 479.98947422 482.97475004 482.07434776 482.97053909 484.15926361 C482.90990629 506.44262529 482.00024737 528.40641968 478.5422554 550.44683075 C478.43334976 551.15337799 478.32444412 551.85992523 478.21223831 552.587883 C466.40678445 628.77032159 437.00393902 701.10485955 391.5422554 763.44683075 C391.04193802 764.13406219 390.54162064 764.82129364 390.02614212 765.52935028 C381.23139355 777.55816905 371.85079846 788.92348728 361.8078804 799.935112 C360.58076408 801.29551854 359.35973991 802.66206282 358.17482376 804.05937958 C352.87553897 810.27348484 347.1266732 816.01399435 341.34523392 821.77422333 C339.6083194 823.50577775 337.87681651 825.24261434 336.14577103 826.98003387 C330.44791573 832.68166762 324.71684804 838.25642701 318.5422554 843.44683075 C317.48572387 844.3589638 316.4297104 845.27169737 315.37428665 846.185112 C249.17255367 902.62358811 168.31923456 940.09545667 82.6047554 954.69683075 C81.92084732 954.81584747 81.23693924 954.9348642 80.53230667 955.05748749 C55.50617762 959.36480047 30.45270086 961.01527568 5.0845108 960.8936615 C2.99961193 960.88413592 0.91473839 960.87932538 -1.17017746 960.87511444 C-23.45353914 960.81448164 -45.41733353 959.90482271 -67.4577446 956.44683075 C-68.16429184 956.33792511 -68.87083908 956.22901947 -69.59879684 956.11681366 C-145.78123543 944.3113598 -218.1157734 914.90851436 -280.4577446 869.44683075 C-281.14497604 868.94651337 -281.83220749 868.44619598 -282.54026413 867.93071747 C-294.5690829 859.13596889 -305.93440113 849.75537381 -316.94602585 839.71245575 C-318.30643239 838.48533943 -319.67297667 837.26431526 -321.07029343 836.07939911 C-327.28439869 830.78011432 -333.0249082 825.03124854 -338.78513718 819.24980927 C-340.5166916 817.51289475 -342.25352819 815.78139186 -343.99094772 814.05034637 C-349.69258147 808.35249108 -355.26734086 802.62142339 -360.4577446 796.44683075 C-361.36987765 795.39029922 -362.28261122 794.33428575 -363.19602585 793.278862 C-419.63450196 727.07712902 -457.10637052 646.22380991 -471.7077446 560.50933075 C-471.88626968 559.48346863 -471.88626968 559.48346863 -472.06840134 558.43688202 C-476.37571432 533.41075297 -478.02618953 508.35727621 -477.90457535 482.98908615 C-477.89504977 480.90418728 -477.89023923 478.81931374 -477.88602829 476.73439789 C-477.82539549 454.45103621 -476.91573656 432.48724182 -473.4577446 410.44683075 C-473.34883896 409.74028351 -473.23993332 409.03373627 -473.12772751 408.3057785 C-461.32227364 332.12333991 -431.91942821 259.78880195 -386.4577446 197.44683075 C-385.95742722 196.7595993 -385.45710983 196.07236786 -384.94163132 195.36431122 C-376.14688274 183.33549245 -366.76628766 171.97017422 -356.7233696 160.9585495 C-355.49625328 159.59814296 -354.27522911 158.23159868 -353.09031296 156.83428192 C-347.79102817 150.62017666 -342.04216239 144.87966715 -336.26072311 139.11943817 C-334.5238086 137.38788375 -332.79230571 135.65104716 -331.06126022 133.91362762 C-325.36340493 128.21199388 -319.63233724 122.63723449 -313.4577446 117.44683075 C-312.40121306 116.5346977 -311.3451996 115.62196413 -310.28977585 114.7085495 C-244.08804287 58.27007339 -163.23472375 20.79820482 -77.5202446 6.19683075 C-76.83633652 6.07781403 -76.15242844 5.9587973 -75.44779587 5.83617401 C-50.42166682 1.52886103 -25.36819005 -0.12161418 0 0 Z " fill="#000000" transform="translate(477.4577445983887,-0.44683074951171875)"/>
<path d="M0 0 C0.66 0.33 1.32 0.66 2 1 C-1.38209983 4.9577764 -4.78357646 8.85099458 -8.5 12.5 C-10.81075448 14.77012583 -12.96901642 17.09124494 -15.0625 19.5625 C-19.04685687 24.19736412 -23.39723496 28.45205279 -27.76196289 32.72485352 C-30.71522229 35.63496936 -33.54505829 38.5882556 -36.24023438 41.74023438 C-39.87515592 45.91567005 -43.71858908 49.8303188 -47.65625 53.71875 C-48.36221313 54.42092651 -49.06817627 55.12310303 -49.79553223 55.84655762 C-52.77897375 58.81383766 -55.7684071 61.77505363 -58.75732422 64.73681641 C-60.95490579 66.91618465 -63.14937938 69.09864947 -65.34375 71.28125 C-66.00749634 71.936698 -66.67124268 72.592146 -67.35510254 73.26745605 C-71.20813052 77.10052142 -74.86373313 81.04237648 -78.39611816 85.17346191 C-81.11233196 88.26674961 -84.0597997 91.12172439 -87 94 C-91.34264347 98.29241971 -95.54675785 102.61534573 -99.49609375 107.27734375 C-101.62717486 109.71840029 -103.9432209 111.95314124 -106.25390625 114.22265625 C-108.06477643 116.06593574 -109.75321354 117.97822799 -111.4375 119.9375 C-113.85617779 122.74576347 -116.35899683 125.39970593 -119 128 C-122.18919759 131.14643057 -125.16474822 134.40606585 -128.0859375 137.80078125 C-130.35154569 140.40391882 -132.67303552 142.95158724 -135 145.5 C-137.78686109 148.55386574 -140.5527492 151.61682988 -143.25 154.75 C-146.65682966 158.67106809 -150.20106042 162.4581186 -153.75 166.25 C-154.35763184 166.89960693 -154.96526367 167.54921387 -155.59130859 168.21850586 C-156.81181945 169.52313958 -158.03235957 170.82774593 -159.25292969 172.13232422 C-159.82946289 172.74865723 -160.40599609 173.36499023 -161 174 C-161.52239258 174.5583252 -162.04478516 175.11665039 -162.58300781 175.69189453 C-173.90817308 186.75508222 -173.90817308 186.75508222 -182 200 C-181.70194993 202.19747131 -181.70194993 202.19747131 -181 204 C-174.53413507 203.79142371 -169.013941 202.462865 -162.9375 200.3125 C-146.52479933 194.54963828 -127.55813919 188.68420613 -110 189 C-111.16323716 192.48971147 -112.02302753 192.98446837 -114.9375 195.078125 C-120.41317808 199.20654368 -125.18342674 203.88095261 -130 208.75 C-130.88429688 209.63961426 -131.76859375 210.52922852 -132.6796875 211.44580078 C-137.71954385 216.55949775 -142.52410378 221.68740892 -146.9296875 227.359375 C-149.55592754 230.70906985 -152.33741722 233.90940924 -155.125 237.125 C-158.34245596 240.85178682 -161.51453985 244.58249376 -164.5 248.5 C-171.44798155 257.6001612 -179.15525568 266.15752841 -186.84765625 274.62890625 C-188.34238561 276.27555003 -189.82879715 277.92976736 -191.30859375 279.58984375 C-195.22156338 283.97791256 -199.1905321 288.24207501 -203.390625 292.35546875 C-205.00450865 294.00460714 -206.46968549 295.7204722 -207.9375 297.5 C-210.64786208 300.71810801 -213.62238445 303.41907027 -216.828125 306.13671875 C-219.11119401 308.09539486 -221.29866603 310.13760008 -223.5 312.1875 C-232.37433893 320.2088017 -242.26089617 327.07778353 -252 334 C-251.78778809 335.34360596 -251.78778809 335.34360596 -251.57128906 336.71435547 C-250.27116987 345.55356656 -249.68336777 354.14909814 -249.73925781 363.08935547 C-249.75003422 365.13148398 -249.7392494 367.17274052 -249.7265625 369.21484375 C-249.71250635 381.12703202 -251.35970113 392.41747514 -254.3125 403.9375 C-254.53123779 404.79375977 -254.74997559 405.65001953 -254.9753418 406.53222656 C-259.37034636 423.34323719 -266.62538601 447.75025734 -282 458 C-282.01458252 457.14994385 -282.02916504 456.2998877 -282.04418945 455.42407227 C-282.36227013 432.53917108 -282.36227013 432.53917108 -286 410 C-286.25007812 408.94039062 -286.50015625 407.88078125 -286.7578125 406.7890625 C-288.07523478 401.61644659 -289.82136648 396.88013908 -292 392 C-292.6549264 390.19076581 -293.29997908 388.37794045 -293.9375 386.5625 C-295.18699113 383.06006539 -296.54860737 379.74409345 -298.25 376.4375 C-300 373 -300 373 -300 371 C-322.35209467 381.72364362 -343.52241703 395.68213172 -363 411 C-364.12064927 411.8664606 -365.24177072 412.73231072 -366.36328125 413.59765625 C-411.0003736 447.58909469 -411.0003736 447.58909469 -434.48046875 496.90625 C-434.85220897 502.01241757 -434.39421679 505.21268439 -431.0625 509.1875 C-429.73472734 510.48588534 -428.37872193 511.75584946 -427 513 C-425.93458984 514.07121094 -425.93458984 514.07121094 -424.84765625 515.1640625 C-416.12380538 523.59660728 -407.83615545 524.4694768 -396 525 C-396.309375 525.74636719 -396.61875 526.49273438 -396.9375 527.26171875 C-398.65240492 531.68138179 -400.05784941 535.56880224 -398.109375 540.046875 C-393.76473585 546.48892615 -387.11364823 551.28951139 -379.7578125 553.75 C-377.43394926 554.16681216 -377.43394926 554.16681216 -374 553 C-368.27818194 548.04284887 -364.6967232 540.34409856 -360.7578125 533.94189453 C-357.23290757 528.25385874 -353.34351289 523.09347196 -349 518 C-348.10795079 516.90219741 -347.21742897 515.80315262 -346.328125 514.703125 C-331.33184776 496.38164121 -310.08872587 479.01478765 -286 475 C-283.7890625 475.46484375 -283.7890625 475.46484375 -282 476 C-282.96679688 476.85980469 -283.93359375 477.71960938 -284.9296875 478.60546875 C-293.29535255 486.15460353 -300.57713962 493.74222193 -307 503 C-307.38349609 503.54591797 -307.76699219 504.09183594 -308.16210938 504.65429688 C-320.40715854 522.23219827 -327.52683426 541.91334492 -333.375 562.375 C-333.63812988 563.26598389 -333.90125977 564.15696777 -334.17236328 565.07495117 C-336.73994734 574.3964727 -336.92857466 582.68203894 -333.6875 591.8125 C-332.0221212 596.70751172 -330.60248937 601.47217801 -329.625 606.5625 C-323.36233765 637.21105988 -310.34856276 662.81587341 -289.015625 685.640625 C-287.0219534 687.97430261 -285.49766299 690.32695593 -284 693 C-307.7504877 691.34298923 -329.44982018 672.05040656 -344.45703125 655.0703125 C-358.40257022 638.23284149 -373.69885093 616.03740058 -377 594 C-377.78632813 593.74476563 -378.57265625 593.48953125 -379.3828125 593.2265625 C-393.40185349 588.47280562 -406.97641799 583.05170421 -420 576 C-421.05445313 575.43667969 -422.10890625 574.87335937 -423.1953125 574.29296875 C-436.47108691 566.89250442 -447.47199473 557.06561581 -458.359375 546.57763672 C-459.75016994 545.24023837 -461.15486275 543.91731617 -462.5625 542.59765625 C-476.07760036 529.63764037 -486.085397 513.91811971 -494.02246094 497.06640625 C-494.64964979 495.74060045 -495.28744309 494.41972987 -495.93847656 493.10546875 C-517.13151849 450.03939425 -511.65035578 394.05151458 -497.25 349.9375 C-491.83803988 334.087535 -485.34380454 318.45436535 -477.0625 303.88525391 C-475.8721488 301.77314638 -474.71630373 299.64400213 -473.5625 297.51171875 C-468.77547085 288.70384203 -463.74224085 280.22903806 -458 272 C-457.30390625 270.9790625 -456.6078125 269.958125 -455.890625 268.90625 C-452.75470834 264.32469799 -449.5993012 259.77538428 -446.265625 255.3359375 C-433.17946115 237.90432489 -423.52748837 221.53086164 -426 199 C-429.22600179 182.16300354 -437.4449119 161.91971713 -451.44921875 151.109375 C-452.18785156 150.66078125 -452.92648437 150.2121875 -453.6875 149.75 C-456.47049597 148.03886604 -458.77481037 146.40179198 -461 144 C-457.87255189 141.37504356 -454.93857001 140.11651549 -451.0625 138.875 C-450.04285156 138.54242188 -449.02320313 138.20984375 -447.97265625 137.8671875 C-440.6541562 135.73222428 -433.53976753 135.81388746 -425.9753418 135.81469727 C-423.73270728 135.81254342 -421.49059233 135.79446031 -419.24804688 135.77539062 C-405.68198518 135.72083178 -392.51771356 137.0398696 -379.3125 140.3125 C-378.42530273 140.5283374 -377.53810547 140.7441748 -376.62402344 140.96655273 C-369.48941493 142.75929519 -362.74472423 145.04256202 -356 148 C-354.99296021 148.42357788 -354.99296021 148.42357788 -353.96557617 148.85571289 C-347.48569535 151.63280467 -341.50230315 155.06639816 -335.48632812 158.72851562 C-330.8558985 161.42918426 -330.8558985 161.42918426 -325.5859375 161.859375 C-323.24228118 161.08051641 -321.18742145 160.13142489 -319 159 C-318.01 159 -317.02 159 -316 159 C-316 158.34 -316 157.68 -316 157 C-315.00484375 156.64808594 -314.0096875 156.29617188 -312.984375 155.93359375 C-312.32074951 155.69890381 -311.65712402 155.46421387 -310.97338867 155.22241211 C-309.46357977 154.6894116 -307.95330892 154.15771821 -306.44262695 153.62719727 C-302.32661724 152.18089632 -298.21799316 150.71839771 -294.12109375 149.21875 C-283.30411309 145.29253884 -272.48624231 142.16673789 -261.28417969 139.54541016 C-259.21475392 139.05127835 -257.15774751 138.52669276 -255.1015625 137.98046875 C-246.84715672 135.80871209 -238.57567022 134.12694835 -230.1875 132.5625 C-208.46487445 128.4759418 -189.11242622 122.73861573 -169.72949219 111.95507812 C-168.09246603 111.05106255 -166.44110796 110.17314242 -164.7890625 109.296875 C-159.43663489 106.47034793 -159.43663489 106.47034793 -154.5 103 C-152.09871437 101.07897149 -149.84069123 99.8005388 -147.125 98.375 C-142.07986037 95.67581698 -137.33620772 92.64904896 -132.60400391 89.44677734 C-126.68344007 85.44190444 -120.707226 81.52498073 -114.71966553 77.62127686 C-105.34239017 71.50699378 -95.9862288 65.36382295 -86.68896484 59.12841797 C-84.91787989 57.94513455 -83.14125389 56.77056214 -81.36328125 55.59765625 C-72.55549257 49.77855452 -63.9160906 43.74561238 -55.30810547 37.63574219 C-43.59511864 29.33481012 -31.83198284 21.12480894 -19.84716797 13.22070312 C-16.47405421 10.99157693 -13.11295564 8.74440824 -9.75 6.5 C-8.51567336 5.67701079 -7.28130192 4.85408878 -6.046875 4.03125 C-5.04140625 3.3609375 -4.0359375 2.690625 -3 2 C-1.515 1.01 -1.515 1.01 0 0 Z " fill="#FEFEFE" transform="translate(777,201)"/>
</svg>
