<?xml version="1.0" encoding="UTF-8"?>
<svg version="1.1" xmlns="http://www.w3.org/2000/svg" width="960" height="960">
<path d="M0 0 C-1.50436471 5.03347186 -4.50699238 8.05730867 -8.0625 11.75 C-8.97721069 12.71595093 -8.97721069 12.71595093 -9.91040039 13.70141602 C-15.51299944 19.58023426 -21.25726217 25.32066319 -27.04907227 31.01269531 C-30.3163751 34.2381748 -33.4770798 37.49191087 -36.47265625 40.97265625 C-40.92795119 46.14595588 -45.81578955 50.86380762 -50.68359375 55.64453125 C-51.39644531 56.34964844 -52.10929687 57.05476563 -52.84375 57.78125 C-53.79024414 58.7103418 -53.79024414 58.7103418 -54.75585938 59.65820312 C-56.67701144 61.66295623 -58.49438818 63.70828873 -60.30859375 65.80859375 C-63.78481132 69.80692729 -67.4485539 73.56151588 -71.21875 77.28125 C-71.88032104 77.93903442 -72.54189209 78.59681885 -73.22351074 79.27453613 C-76.01578144 82.05066558 -78.81405416 84.82071537 -81.61181641 87.59130859 C-83.67040898 89.6316708 -85.72587903 91.67514331 -87.78125 93.71875 C-88.40124878 94.33045044 -89.02124756 94.94215088 -89.66003418 95.5723877 C-93.42582315 99.31735858 -96.98822231 103.18614031 -100.45436096 107.21034241 C-102.72578219 109.84036543 -105.07788538 112.38610248 -107.4375 114.9375 C-107.93338623 115.4739917 -108.42927246 116.0104834 -108.94018555 116.56323242 C-111.97246604 119.83628034 -115.02384069 123.09077278 -118.0859375 126.3359375 C-119.13696655 127.44980835 -119.13696655 127.44980835 -120.20922852 128.58618164 C-121.57278466 130.02950939 -122.93776956 131.47148921 -124.30444336 132.91186523 C-128.0903567 136.91572789 -131.77358586 140.98776271 -135.38549805 145.14916992 C-137.63122004 147.72361699 -139.93569347 150.23691867 -142.25 152.75 C-143.20708051 153.79031927 -144.16411035 154.83068515 -145.12109375 155.87109375 C-145.60046387 156.39171387 -146.07983398 156.91233398 -146.57373047 157.44873047 C-149.2763324 160.38819173 -151.96747847 163.33819638 -154.65869141 166.28808594 C-157.24029134 169.10917821 -159.84920508 171.90050899 -162.48828125 174.66796875 C-175.2600227 187.46787124 -175.2600227 187.46787124 -184 203 C-183.67 203.33 -183.34 203.66 -183 204 C-177.50761442 203.53682746 -172.43301167 202.42477629 -167.16015625 200.8203125 C-165.66866077 200.38137115 -164.17712287 199.94257391 -162.68554688 199.50390625 C-160.38829024 198.82034062 -158.09196053 198.13385625 -155.79663086 197.44384766 C-147.5193017 194.96504649 -139.29603529 192.70272563 -130.78125 191.19140625 C-129.75228355 191.00863632 -129.75228355 191.00863632 -128.70252991 190.82217407 C-123.11433227 189.89607446 -117.64751269 189.67066341 -112 190 C-113.49734103 193.74335257 -115.57095024 195.45779352 -118.75 197.875 C-128.778413 205.87401011 -137.91262825 214.9818582 -145.546875 225.3046875 C-146.02640625 225.86414063 -146.5059375 226.42359375 -147 227 C-147.66 227 -148.32 227 -149 227 C-149.35771484 227.82371094 -149.35771484 227.82371094 -149.72265625 228.6640625 C-151.31151282 231.56967787 -153.2830071 233.85855229 -155.4375 236.375 C-159.25966258 240.87570695 -162.94726912 245.45673359 -166.5625 250.125 C-171.12598357 255.99290799 -175.96840949 261.52670498 -181 267 C-182.17134665 268.3292238 -183.33824593 269.66238407 -184.5 271 C-188.61524517 275.71382629 -192.77811207 280.38140518 -197 285 C-197.54720703 285.5990918 -198.09441406 286.19818359 -198.65820312 286.81542969 C-214.56105233 304.16320589 -231.70464862 320.11466621 -251.09375 333.546875 C-253.11772614 334.8686162 -253.11772614 334.8686162 -254 337 C-253.75014551 339.05448281 -253.43171812 341.10076079 -253.08203125 343.140625 C-251.88937927 351.02197474 -251.64201572 358.77991936 -251.6875 366.75 C-251.68998749 367.45165283 -251.69247498 368.15330566 -251.69503784 368.8762207 C-251.82348504 392.37171502 -256.83377767 415.68153377 -267 437 C-267.37511719 437.83917969 -267.75023437 438.67835938 -268.13671875 439.54296875 C-270.86694388 445.39345116 -274.30826174 450.31187753 -278.328125 455.359375 C-280.18971738 458.29964707 -280.65845949 460.56450425 -281 464 C-284.875 462.25 -284.875 462.25 -286 460 C-286.11931782 457.94887865 -286.179236 455.89418806 -286.2109375 453.83984375 C-286.23687988 452.57994629 -286.26282227 451.32004883 -286.28955078 450.02197266 C-286.30278381 449.35514465 -286.31601685 448.68831665 -286.32965088 448.00128174 C-286.59085491 436.11421329 -287.04566795 424.5757007 -290 413 C-290.35239746 411.59645264 -290.35239746 411.59645264 -290.71191406 410.16455078 C-293.5525726 399.10689529 -296.2957253 388.54175438 -302.71484375 378.9765625 C-304 377 -304 377 -304 375 C-308.98578842 376.14257651 -312.67096272 377.82460276 -316.91015625 380.68359375 C-319 382 -319 382 -321.671875 383.3046875 C-326.0115167 385.51525616 -330.0780987 388.078796 -334.1875 390.6875 C-335.03248047 391.2227832 -335.87746094 391.75806641 -336.74804688 392.30957031 C-343.02261949 396.31364332 -349.05156787 400.52460233 -355 405 C-356.87333814 406.35646473 -358.74836549 407.71059938 -360.625 409.0625 C-365.49761246 412.61244832 -370.28438727 416.24420225 -375 420 C-375.60038086 420.47630859 -376.20076172 420.95261719 -376.81933594 421.44335938 C-387.47147479 429.87990614 -387.47147479 429.87990614 -397.2890625 439.25390625 C-399.06518354 441.06652293 -400.9322881 442.68077558 -402.875 444.3125 C-419.61912398 458.8284431 -434.79969985 480.14014803 -437.30078125 502.71484375 C-437.20324835 505.06155609 -437.20324835 505.06155609 -435.609375 506.625 C-434.68898438 507.305625 -434.68898438 507.305625 -433.75 508 C-430.67467303 510.40569932 -428.40495262 512.90791806 -426 516 C-425.01 516.66 -424.02 517.32 -423 518 C-423 518.66 -423 519.32 -423 520 C-415.14767614 523.03072149 -407.30422604 524.07001421 -399 525 C-399.17660156 525.89460937 -399.35320312 526.78921875 -399.53515625 527.7109375 C-400.65296251 535.11605103 -400.65296251 535.11605103 -398.30859375 542.015625 C-393.58235208 547.35763758 -388.38443973 552.36688927 -381.10546875 553.41796875 C-376.77346546 552.83491925 -375.68197178 551.07005095 -373 547.6875 C-372.56776123 547.14641602 -372.13552246 546.60533203 -371.69018555 546.04785156 C-368.38844274 541.80054503 -365.86377833 537.30838529 -363.41796875 532.51953125 C-361.59742367 529.28467843 -359.36775953 526.73752073 -356.8515625 524.02734375 C-354.78586425 521.76553491 -352.89638118 519.40525566 -351 517 C-349.66821994 515.3320919 -348.33495745 513.66536608 -347 512 C-346.44699219 511.30777344 -345.89398438 510.61554688 -345.32421875 509.90234375 C-333.24789087 495.40498594 -311.95785118 479.52181425 -293 476 C-291.25113019 475.93375493 -289.49997252 475.91447405 -287.75 475.9375 C-286.85796875 475.94652344 -285.9659375 475.95554687 -285.046875 475.96484375 C-284.03367187 475.98224609 -284.03367187 475.98224609 -283 476 C-285.06745841 479.81582356 -287.2554746 482.33287262 -290.5625 485.125 C-307.87343859 500.42596024 -319.79701729 520.07787871 -327 542 C-327.66 542 -328.32 542 -329 542 C-329.26937378 542.99749268 -329.26937378 542.99749268 -329.54418945 544.01513672 C-330.86298378 548.87752585 -332.20332752 553.73124682 -333.60546875 558.5703125 C-333.86650391 559.48683594 -334.12753906 560.40335938 -334.39648438 561.34765625 C-334.92677142 563.20955298 -335.46594278 565.06894076 -336.01367188 566.92578125 C-336.27083984 567.83972656 -336.52800781 568.75367188 -336.79296875 569.6953125 C-337.14137817 570.9021167 -337.14137817 570.9021167 -337.49682617 572.13330078 C-338.7462452 579.25153378 -337.91936888 585.65178193 -336.0234375 592.55859375 C-335.81570709 593.3466188 -335.60797668 594.13464386 -335.39395142 594.94654846 C-334.95361609 596.60761792 -334.50792755 598.26727672 -334.05712891 599.92553711 C-333.38599255 602.39701955 -332.73257891 604.87263803 -332.08203125 607.34960938 C-329.88190753 615.63561409 -327.48965247 623.83516536 -324.7890625 631.97265625 C-324.54054535 632.72203964 -324.2920282 633.47142303 -324.03598022 634.24351501 C-323.09638485 637.01605909 -322.15190075 639.7006513 -320.82568359 642.31420898 C-320 644 -320 644 -320 647 C-319.01 647.33 -318.02 647.66 -317 648 C-315.72691762 650.19186353 -314.60156038 652.34923335 -313.5 654.625 C-307.60117313 666.21183176 -299.86122215 676.38150164 -290.97265625 685.8515625 C-288.86268268 688.14955352 -286.92464752 690.54575148 -285 693 C-285.66 693.99 -286.32 694.98 -287 696 C-299.04438862 695.31824215 -308.65409028 688.63129435 -318.38671875 682.08154297 C-319.79981623 681.1342031 -321.22696208 680.20788771 -322.65625 679.28515625 C-348.86947285 661.88059757 -370.63899834 631.27562707 -379 601 C-379 600.01 -379 599.02 -379 598 C-382.66421065 596.09387022 -386.45107631 594.48877043 -390.25 592.875 C-390.8996875 592.59785156 -391.549375 592.32070313 -392.21875 592.03515625 C-393.81203053 591.35566896 -395.4059515 590.67768372 -397 590 C-397 589.34 -397 588.68 -397 588 C-397.87398438 587.87238281 -398.74796875 587.74476563 -399.6484375 587.61328125 C-428.95723125 582.25025023 -453.60983266 556.73200844 -473.65161133 536.359375 C-474.83899613 535.16231568 -476.04872108 533.98750417 -477.26171875 532.81640625 C-479.2213049 530.76874882 -480.44796064 528.54476875 -481.796875 526.06640625 C-484.66086269 521.1474144 -488.05182036 516.4495494 -491.59375 511.99609375 C-493.13319163 509.81094188 -494.00890679 507.75281776 -494.9375 505.25 C-496.15828612 502.07502773 -497.43477853 499.01995672 -499 496 C-502.41573546 489.31645463 -505.12480036 482.59800626 -506.5078125 475.203125 C-506.98330787 472.87953154 -506.98330787 472.87953154 -507.95703125 470.234375 C-512.11257916 457.34750733 -512.6278484 443.42174316 -512.92822266 429.99072266 C-512.97705171 427.95617888 -513.03975305 425.92193105 -513.11474609 423.88818359 C-513.71954971 407.22163328 -511.92378119 392.18368895 -508 376 C-507.63116699 374.42412109 -507.63116699 374.42412109 -507.25488281 372.81640625 C-504.0008668 358.91559012 -500.404093 345.24002784 -495 332 C-494.34 332 -493.68 332 -493 332 C-492.86078125 331.00419922 -492.86078125 331.00419922 -492.71875 329.98828125 C-491.79504814 326.14789036 -490.19726286 322.73275883 -488.5 319.1875 C-488.14615234 318.44266357 -487.79230469 317.69782715 -487.42773438 316.93041992 C-483.96104897 309.73977977 -480.09450423 302.8064231 -476.09375 295.90234375 C-475.03392142 294.05899905 -473.99760366 292.2045283 -472.96875 290.34375 C-468.45078373 282.20895408 -463.41879291 274.55949543 -458 267 C-457.18584485 265.85571987 -456.37204832 264.71118452 -455.55859375 263.56640625 C-448.72586517 253.97054047 -448.72586517 253.97054047 -445.35546875 249.42578125 C-435.03960556 235.44295107 -427.55796983 221.28923885 -429.5 203.4375 C-432.86570763 184.19048928 -441.14190976 165.09382487 -456 152 C-458.89546771 150.02219861 -461.77354037 148.37024952 -465 147 C-465 146.01 -465 145.02 -465 144 C-438.90987287 129.44973679 -402.04950662 135.04672117 -374.51269531 142.69042969 C-359.46662245 147.02282876 -345.06319504 153.29120331 -332 162 C-326.046642 161.77882261 -320.74018799 158.85751075 -315.375 156.5 C-288.77768992 145.17317931 -261.21266074 138.59751534 -233.00170898 132.68701172 C-196.74243491 125.06210786 -168.66690459 110.74645638 -137.67724609 90.72900391 C-135.1697052 89.10959805 -132.65763532 87.49747184 -130.14453125 85.88671875 C-118.97360155 78.70074727 -107.96796447 71.27935185 -96.99365234 63.7980957 C-95.8603602 63.02554071 -94.72705954 62.25299822 -93.59375 61.48046875 C-93.04347137 61.10529114 -92.49319275 60.73011353 -91.92623901 60.34356689 C-87.17832491 57.11115729 -82.40132274 53.92457416 -77.61425781 50.75048828 C-74.31700512 48.54267153 -71.07141451 46.26646474 -67.828125 43.98046875 C-64.23446765 41.46391588 -60.61760733 38.98194915 -57 36.5 C-52.71597158 33.56005778 -48.43605991 30.61610522 -44.1875 27.625 C-33.36722043 20.02894515 -22.43048225 12.59355598 -11.4375 5.25 C-10.81270752 4.83194092 -10.18791504 4.41388184 -9.54418945 3.9831543 C-3.55893393 0 -3.55893393 0 0 0 Z " fill="#FAFAFA" transform="translate(780,200)"/>
<path d="M0 0 C0.66 0.33 1.32 0.66 2 1 C-0.32305634 4.19420247 -2.83216807 6.81133583 -5.8125 9.375 C-23.64264991 24.7752584 -33.75308563 44.22788764 -42 66 C-42.66 66 -43.32 66 -44 66 C-44.495 66.99 -44.495 66.99 -45 68 C-43.70227805 60.93781151 -41.45663579 55.00174626 -38.3125 48.5625 C-37.64093872 47.17272949 -37.64093872 47.17272949 -36.95581055 45.75488281 C-33.82315762 39.39187458 -30.43552666 33.55238589 -26 28 C-25.47277344 27.28585937 -24.94554687 26.57171875 -24.40234375 25.8359375 C-17.31205908 16.3487008 -9.19241308 7.48035907 0 0 Z " fill="#343434" transform="translate(495,676)"/>
<path d="M0 0 C3 1 3 1 4.65625 3.8515625 C5.27586761 5.10690269 5.89007323 6.3649229 6.5 7.625 C12.39882687 19.21183176 20.13877785 29.38150164 29.02734375 38.8515625 C31.13731732 41.14955352 33.07535248 43.54575148 35 46 C34.34 46.99 33.68 47.98 33 49 C25.59681758 48.58095194 17.77778472 46.44611625 12.17578125 41.3359375 C11.78777344 40.89507813 11.39976562 40.45421875 11 40 C20.55353427 42.71035882 20.55353427 42.71035882 24.875 44.6875 C28.04974862 46.25815499 28.04974862 46.25815499 32 46 C31.00051588 44.85371665 30.00036869 43.70801147 29 42.5625 C28.35417969 41.81871094 27.70835937 41.07492187 27.04296875 40.30859375 C25.78000448 38.88141997 24.49481301 37.47317759 23.17578125 36.09765625 C18.46262551 31.10783728 14.6131416 25.69484455 10.8125 20 C10.31339111 19.25250488 9.81428223 18.50500977 9.30004883 17.73486328 C0 3.57676467 0 3.57676467 0 0 Z " fill="#252525" transform="translate(460,847)"/>
<path d="M0 0 C0.66 0.66 1.32 1.32 2 2 C-4.50415827 13.54584309 -4.50415827 13.54584309 -8.375 18.375 C-10.83495576 21.50228418 -11.79692413 23.93848269 -12 28 C-13.32 27.34 -14.64 26.68 -16 26 C-16 25.34 -16 24.68 -16 24 C-15.01 24 -14.02 24 -13 24 C-13.33 23.01 -13.66 22.02 -14 21 C-12.3046875 18.3984375 -12.3046875 18.3984375 -9.875 15.375 C-6.03695262 10.49441865 -2.78909192 5.55015276 0 0 Z " fill="#252525" transform="translate(511,636)"/>
<path d="M0 0 C0 3.09949453 -0.50545476 4.54387076 -1.71484375 7.34375 C-2.07126953 8.17777344 -2.42769531 9.01179687 -2.79492188 9.87109375 C-3.17197266 10.73863281 -3.54902344 11.60617187 -3.9375 12.5 C-4.67667767 14.21836467 -5.41499558 15.9370995 -6.15234375 17.65625 C-6.48226318 18.41744141 -6.81218262 19.17863281 -7.15209961 19.96289062 C-7.83934941 21.61403152 -8.43444023 23.30332069 -9 25 C-9.66 25 -10.32 25 -11 25 C-11.33 25.66 -11.66 26.32 -12 27 C-10.83483151 20.51491748 -8.87871967 14.91389149 -6 9 C-5.64421875 8.23816406 -5.2884375 7.47632813 -4.921875 6.69140625 C-2.26668618 1.13334309 -2.26668618 1.13334309 0 0 Z " fill="#212121" transform="translate(462,717)"/>
<path d="M0 0 C9.55353427 2.71035882 9.55353427 2.71035882 13.875 4.6875 C17.04974862 6.25815499 17.04974862 6.25815499 21 6 C21.33 5.01 21.66 4.02 22 3 C22.66 4.32 23.32 5.64 24 7 C23.34 7.66 22.68 8.32 22 9 C14.68635461 8.86702463 6.65845819 6.33726593 1.17578125 1.3359375 C0.78777344 0.89507813 0.39976562 0.45421875 0 0 Z " fill="#161616" transform="translate(471,887)"/>
<path d="M0 0 C4.66803562 3.29708341 8.58024511 6.35890408 12 11 C13.31494512 12.35147138 14.64264858 13.69112542 16 15 C15.67 15.66 15.34 16.32 15 17 C12.86495288 15.1145429 10.74234397 13.21766288 8.625 11.3125 C8.02171875 10.78205078 7.4184375 10.25160156 6.796875 9.70507812 C3.49584593 6.71581291 1.2317391 4.42604916 0 0 Z " fill="#D9DADA" transform="translate(342,705)"/>
<path d="M0 0 C3.90050282 1.30016761 4.31143857 2.76003913 6.25 6.3125 C6.79140625 7.27800781 7.3328125 8.24351562 7.890625 9.23828125 C9.05503177 12.13699811 9.15811981 13.16529977 8 16 C6.66141476 13.71125827 5.32898986 11.41930344 4 9.125 C3.6184375 8.47402344 3.236875 7.82304688 2.84375 7.15234375 C0 2.2265625 0 2.2265625 0 0 Z " fill="#2D2D2D" transform="translate(460,847)"/>
<path d="M0 0 C0.66 0.33 1.32 0.66 2 1 C-2.95 5.95 -7.9 10.9 -13 16 C-13.66 15.67 -14.32 15.34 -15 15 C-10.39863498 9.46398272 -5.53601728 4.60136502 0 0 Z " fill="#ADADAD" transform="translate(448,697)"/>
<path d="M0 0 C3.10359343 1.64878401 3.80170184 3.84601546 5 7.0625 C4.6875 9.4375 4.6875 9.4375 4 11.0625 C0 5.3125 0 5.3125 0 3.0625 C-1.65 3.0625 -3.3 3.0625 -5 3.0625 C-2.61538462 0.08173077 -2.61538462 0.08173077 0 0 Z " fill="#DFDFDF" transform="translate(476,571.9375)"/>
<path d="M0 0 C0 3.61029169 -0.96092582 6.55806676 -2 10 C-3.32 9.34 -4.64 8.68 -6 8 C-6 7.34 -6 6.68 -6 6 C-5.01 6 -4.02 6 -3 6 C-3.33 5.01 -3.66 4.02 -4 3 C-2.68 2.01 -1.36 1.02 0 0 Z " fill="#070707" transform="translate(501,654)"/>
<path d="M0 0 C1.12894876 0.93274109 2.25300876 1.87140122 3.375 2.8125 C4.00148438 3.33457031 4.62796875 3.85664062 5.2734375 4.39453125 C7 6 7 6 9 9 C4.53037166 7.35329482 2.68255113 6.0238267 0 2 C0 1.34 0 0.68 0 0 Z " fill="#AFAFAF" transform="translate(381,742)"/>
<path d="M0 0 C0.66 0 1.32 0 2 0 C2 4 2 8 2 12 C1.34 11.67 0.68 11.34 0 11 C-1.23098442 7.0832314 -0.83220851 3.97610732 0 0 Z " fill="#A3A3A3" transform="translate(378,731)"/>
<path d="M0 0 C0.66 0 1.32 0 2 0 C3.5078125 1.75 3.5078125 1.75 5.125 4 C5.66382813 4.7425 6.20265625 5.485 6.7578125 6.25 C7.16773438 6.8275 7.57765625 7.405 8 8 C7.67 8.66 7.34 9.32 7 10 C3.60582235 6.87378374 1.3937282 4.43458973 0 0 Z " fill="#C6C6C7" transform="translate(300,727)"/>
<path d="M0 0 C1.1549921 0.73581742 2.29874185 1.48930039 3.4375 2.25 C4.07558594 2.66765625 4.71367187 3.0853125 5.37109375 3.515625 C7.29902057 5.27248877 7.61479436 6.46089803 8 9 C6.65826597 8.07456291 5.32679841 7.13422595 4 6.1875 C3.2575 5.66542969 2.515 5.14335938 1.75 4.60546875 C1.1725 4.07566406 0.595 3.54585937 0 3 C0 2.01 0 1.02 0 0 Z " fill="#E9E9E9" transform="translate(350,713)"/>
<path d="M0 0 C2.76276177 0.52268466 5.3260876 1.10869587 8 2 C8 2.66 8 3.32 8 4 C2.25 3.125 2.25 3.125 0 2 C0 1.34 0 0.68 0 0 Z " fill="#DADADA" transform="translate(361,722)"/>
<path d="M0 0 C0.95465783 2.16967689 1.14401212 3.56328793 0.3984375 5.82421875 C-0.35870385 7.5684743 -1.17609198 9.28627131 -2 11 C-2.95465783 8.83032311 -3.14401212 7.43671207 -2.3984375 5.17578125 C-1.64129615 3.4315257 -0.82390802 1.71372869 0 0 Z " fill="#D6D6D6" transform="translate(289,525)"/>
<path d="M0 0 C0.66 0.33 1.32 0.66 2 1 C-1.625 5.875 -1.625 5.875 -5 7 C-3.70700306 4.11562221 -2.34058637 2.12780579 0 0 Z " fill="#161616" transform="translate(495,676)"/>
<path d="M0 0 C0.66 0.33 1.32 0.66 2 1 C1.67 2.65 1.34 4.3 1 6 C-0.32 5.67 -1.64 5.34 -3 5 C-3 4.01 -3 3.02 -3 2 C-2.01 1.34 -1.02 0.68 0 0 Z " fill="#858585" transform="translate(318,342)"/>
</svg>
